<svg xmlns="http://www.w3.org/2000/svg" version="1.1" xmlns:xlink="http://www.w3.org/1999/xlink" xmlns:svgjs="http://svgjs.dev/svgjs" viewBox="0 0 800 800" opacity="0.41"><defs><symbol id="bbburst-shape-6" viewBox="0 0 133 116"><path d="M59.7487 10.2513c-13.6683-13.66839-35.8291-13.66839-49.4974 0-13.66839 13.6683-13.66839 35.8291 0 49.4974l49.4974-49.4974ZM66.5 66.5 41.7513 91.2487 66.5 115.997l24.7487-24.7483L66.5 66.5Zm56.249-6.7513c13.668-13.6683 13.668-35.8291 0-49.4974-13.669-13.66839-35.8294-13.66839-49.4977 0l49.4977 49.4974Zm-112.4977 0 31.5 31.5 49.4974-49.4974-31.5-31.5-49.4974 49.4974Zm80.9974 31.5 31.5003-31.5-49.4977-49.4974-31.5 31.5 49.4974 49.4974Z"></path></symbol><symbol id="bbburst-shape-7" viewBox="0 0 139 124"><path fill-rule="evenodd" clip-rule="evenodd" d="M70.1641 15.0917C54.6093.764854 37.8293-2.10782 24.4032 2.82615 10.3804 7.97941.763366 21.4591 1.00047 37.0608c.1068 7.0273 2.86132 13.7317 7.0039 20.2001C12.1442 63.7249 17.853 70.2322 24.25 76.9024c3.8209 3.9842 7.8871 8.0312 12.0767 12.201h.0001c10.0335 9.9862 20.7748 20.6766 30.5497 32.8956 1.38 1.725 3.8972 2.005 5.6223.624.6706-.536 1.1228-1.244 1.3439-2.011 9.5768-11.748 20.0328-22.0735 29.8163-31.7351 4.19-4.1373 8.256-8.1528 12.078-12.1062 6.396-6.6176 12.106-13.0752 16.247-19.4911 4.144-6.4196 6.905-13.0811 7.012-20.0691.237-15.5124-9.399-28.8902-23.411-33.99923-13.32-4.85681-29.9542-2.08621-45.4209 11.88043Zm-3.7351 7.4919C52.1278 8.44857 37.6826 6.46918 27.1626 10.3352 16.2859 14.3323 8.8148 24.7824 8.99955 36.9392c.07575 4.9844 2.03755 10.2234 5.74165 16.0072 3.707 5.7881 8.9752 11.8418 15.2827 18.4187 3.5798 3.7328 7.4978 7.6329 11.6 11.7163 9.0476 9.0063 18.9911 18.9046 28.1786 29.8666 9.2999-11.068 19.4036-21.0473 28.5839-30.1144l.0007-.0006c4.1019-4.0508 8.0189-7.9196 11.5979-11.6222 6.307-6.5252 11.573-12.5298 15.278-18.2697 3.703-5.7362 5.658-10.924 5.734-15.8531.184-12.0276-7.267-22.3914-18.153-26.3608-10.71-3.90518-25.4722-1.80041-40.0023 12.867-1.5547 1.5694-4.0874 1.5813-5.6568.0265-.3146-.3116-.5666-.6625-.7559-1.0371Z"></path></symbol><symbol id="bbburst-shape-10" viewBox="0 0 145 145"><circle cx="72.5" cy="72.5" r="61.5" fill="none" stroke-width="22"></circle></symbol></defs><use xlink:href="#bbburst-shape-10" width="15.981492506674744" opacity="0.9145748909947913" transform="matrix(0.823353717135345,0.5675285512460235,-0.5675285512460235,0.823353717135345,936.6252791478505,-317.32811021789894)" fill="none" stroke="#aea090"></use><use xlink:href="#bbburst-shape-10" width="57.860734961341194" opacity="0.21217738240291784" transform="matrix(0.7242464519783154,-0.689541207468286,0.689541207468286,0.7242464519783154,-233.85457053094757,8.404027660384486)" fill="none" stroke="#aea090"></use><use xlink:href="#bbburst-shape-7" width="44.714562060571176" opacity="0.5895537041013705" transform="matrix(0.9267958610085042,-0.3755654829953164,0.3755654829953164,0.9267958610085042,363.94810039711786,-48.79928167901363)" fill="#ae9890"></use><use xlink:href="#bbburst-shape-10" width="64.57666127122383" opacity="0.24648027983051457" transform="matrix(0.92235214617539,-0.38635025358559305,0.38635025358559305,0.92235214617539,409.1380716985614,368.19432896504065)" fill="none" stroke="#aea090"></use><use xlink:href="#bbburst-shape-6" width="14.515037304662432" opacity="0.9556972835570549" transform="matrix(0.8131892650124363,-0.5819993292681133,0.5819993292681133,0.8131892650124363,545.1250121138819,-279.80678739126756)" fill="#aea090"></use><use xlink:href="#bbburst-shape-7" width="22.129623895092557" opacity="0.8182383245258259" transform="matrix(0.8025429433164367,-0.5965943547612487,0.5965943547612487,0.8025429433164367,451.6875333419149,-163.0753678001776)" fill="#ae9890"></use><use xlink:href="#bbburst-shape-10" width="47.31767726144731" opacity="0.2592547644129346" transform="matrix(0.981561562991442,-0.1911462739835579,0.1911462739835579,0.981561562991442,-36.22652704035618,-309.33445088480505)" fill="none" stroke="#ae9890"></use><use xlink:href="#bbburst-shape-6" width="27.99250812481816" opacity="0.7617495238315557" transform="matrix(0.972683481755969,0.23213540083125098,-0.23213540083125098,0.972683481755969,758.7788120723333,-186.76835388891877)" fill="#aea090"></use><use xlink:href="#bbburst-shape-6" width="24.112995963380737" opacity="0.7468625954700769" transform="matrix(0.9388017126649636,0.3444580443208303,-0.3444580443208303,0.9388017126649636,686.5757293716791,-298.85295070746275)" fill="#aea090"></use><use xlink:href="#bbburst-shape-10" width="16.22130656992265" opacity="0.9422017059483134" transform="matrix(0.9022352515333987,0.4312441893990745,-0.4312441893990745,0.9022352515333987,915.4515547768438,-334.9345416247156)" fill="none" stroke="#ae9890"></use><use xlink:href="#bbburst-shape-6" width="50.61203267572807" opacity="0.5120953871780894" transform="matrix(0.8507486983047939,0.5255726898657298,-0.5255726898657298,0.8507486983047939,620.123876097429,-33.9074941433081)" fill="#aea090"></use><use xlink:href="#bbburst-shape-6" width="45.90364701825885" opacity="0.4470077823813151" transform="matrix(0.9094261980186048,0.41586535123453755,-0.41586535123453755,0.9094261980186048,422.0038648565933,-195.04402880248168)" fill="#ae9890"></use><use xlink:href="#bbburst-shape-7" width="22.755566177917" opacity="0.7345067867696327" transform="matrix(0.8958963285388052,-0.4442631748307407,0.4442631748307407,0.8958963285388052,348.29844406891027,-322.6972734299035)" fill="#ae9890"></use><use xlink:href="#bbburst-shape-6" width="20.952838302912674" opacity="0.7186252060808639" transform="matrix(0.978710333603826,-0.20524639557636026,0.20524639557636026,0.978710333603826,470.76553578763446,-237.48369876118704)" fill="#ae9890"></use><use xlink:href="#bbburst-shape-6" width="63.2735753683837" opacity="0.19624112507010083" transform="matrix(0.9683228434228953,0.2497015636823265,-0.2497015636823265,0.9683228434228953,296.8728580368763,169.05675645428704)" fill="#aea090"></use><use xlink:href="#bbburst-shape-7" width="19.863066504820445" opacity="0.6980491937682739" transform="matrix(0.9199559647953516,-0.39202171220157417,0.39202171220157417,0.9199559647953516,606.0194566348482,-63.41428377199668)" fill="#ae9890"></use><use xlink:href="#bbburst-shape-7" width="25.36755124622579" opacity="0.7803602113136993" transform="matrix(0.9983929788527703,0.05666974305122302,-0.05666974305122302,0.9983929788527703,649.9773806676758,-249.55091840746925)" fill="#aea090"></use><use xlink:href="#bbburst-shape-7" width="39.06041868736953" opacity="0.6200825170894206" transform="matrix(0.8331035965964673,-0.553116983411313,0.553116983411313,0.8331035965964673,252.8522157080331,-102.04750768484169)" fill="#ae9890"></use><use xlink:href="#bbburst-shape-7" width="32.087634913177794" opacity="0.6113240586916489" transform="matrix(0.9393339079081254,0.3430040953896167,-0.3430040953896167,0.9393339079081254,746.2830894864334,-34.61162955619443)" fill="#aea090"></use><use xlink:href="#bbburst-shape-6" width="48.7388540289917" opacity="0.447421482060938" transform="matrix(0.7491845761632466,0.6623612842241735,-0.6623612842241735,0.7491845761632466,574.4755972809464,-28.831398314570038)" fill="#ae9890"></use><use xlink:href="#bbburst-shape-7" width="18.98988243404514" opacity="0.7577546456283317" transform="matrix(0.9905723839803253,0.13699033577422504,-0.13699033577422504,0.9905723839803253,789.068510802985,-161.92236397162625)" fill="#ae9890"></use><use xlink:href="#bbburst-shape-7" width="34.08287702269049" opacity="0.6417618738877052" transform="matrix(0.9018064996529573,-0.4321400666261817,0.4321400666261817,0.9018064996529573,524.7289937372087,-5.785215986495757)" fill="#aea090"></use><use xlink:href="#bbburst-shape-7" width="43.97848847751563" opacity="0.5571941082442979" transform="matrix(0.869093062435058,-0.49464861146803235,0.49464861146803235,0.869093062435058,178.76270925824429,-155.69301732089548)" fill="#ae9890"></use><use xlink:href="#bbburst-shape-6" width="65.8256637639558" opacity="0.3418110219315229" transform="matrix(0.9542744057986972,-0.29893202979530903,0.29893202979530903,0.9542744057986972,151.46012125183148,58.99781497516108)" fill="#ae9890"></use><use xlink:href="#bbburst-shape-7" width="17.578302986013174" opacity="0.7992733339658407" transform="matrix(0.7399107135081622,-0.6727050884569273,0.6727050884569273,0.7399107135081622,504.25598473980796,-90.29675604093666)" fill="#ae9890"></use><use xlink:href="#bbburst-shape-7" width="22.97926047983086" opacity="0.8327462073804107" transform="matrix(0.9999790242428219,-0.006476964904472017,0.006476964904472017,0.9999790242428219,734.8998000986664,-240.61574340131233)" fill="#ae9890"></use><use xlink:href="#bbburst-shape-10" width="63.39061184580622" opacity="0.13379746568874373" transform="matrix(0.9976073553833388,0.06913439437111535,-0.06913439437111535,0.9976073553833388,76.03371716293991,80.33201823367835)" fill="none" stroke="#aea090"></use><use xlink:href="#bbburst-shape-6" width="58.28726604490731" opacity="0.3063748290380156" transform="matrix(0.9872525114777491,-0.1591618000051422,0.1591618000051422,0.9872525114777491,312.96943479918735,180.18679957204898)" fill="#ae9890"></use><use xlink:href="#bbburst-shape-7" width="82.5945435177795" opacity="0.004107248252972595" transform="matrix(0.9717001143102055,-0.2362178821544498,0.2362178821544498,0.9717001143102055,-44.68568628025277,319.703262303304)" fill="#ae9890"></use><use xlink:href="#bbburst-shape-6" width="25.428501594126388" opacity="0.6989373323342684" transform="matrix(0.944991625126159,0.3270945252391439,-0.3270945252391439,0.944991625126159,703.5027990620122,-171.73649971333396)" fill="#ae9890"></use><use xlink:href="#bbburst-shape-7" width="13.790368672782911" opacity="0.9218757159941113" transform="matrix(0.8664912836922719,-0.49919220274891996,0.49919220274891996,0.8664912836922719,575.014153498078,-267.4282064052951)" fill="#aea090"></use><use xlink:href="#bbburst-shape-7" width="30.894935245103" opacity="0.7008283742482196" transform="matrix(0.7522212565596534,-0.6589106018116692,0.6589106018116692,0.7522212565596534,413.5527250720323,-12.896269345612495)" fill="#ae9890"></use><use xlink:href="#bbburst-shape-7" width="47.69993149482702" opacity="0.5317953787666644" transform="matrix(0.9486106217318147,-0.3164457115171259,0.3164457115171259,0.9486106217318147,513.0421527245455,75.67437788101233)" fill="#aea090"></use><use xlink:href="#bbburst-shape-10" width="68.31626987815439" opacity="0.3076962025654" transform="matrix(0.8300186524429558,-0.5577356332500011,0.5577356332500011,0.8300186524429558,-59.065361250088216,18.832010752754)" fill="none" stroke="#ae9890"></use><use xlink:href="#bbburst-shape-7" width="57.65303363320281" opacity="0.3400515128650853" transform="matrix(0.9917254067794746,0.1283772470030635,-0.1283772470030635,0.9917254067794746,181.4189538800369,-244.00854992419517)" fill="#ae9890"></use><use xlink:href="#bbburst-shape-7" width="14.693873580412212" opacity="0.9028940529549064" transform="matrix(0.7868021384014292,0.6172053102549736,-0.6172053102549736,0.7868021384014292,982.8560218668159,-241.56463227307552)" fill="#aea090"></use><use xlink:href="#bbburst-shape-6" width="16.26796897536031" opacity="0.888495683104276" transform="matrix(0.9683817864247241,0.24947287572171084,-0.24947287572171084,0.9683817864247241,794.3646388567977,-335.3662970210733)" fill="#aea090"></use><use xlink:href="#bbburst-shape-6" width="18.129073167517348" opacity="0.8619838825738138" transform="matrix(0.740984456638178,0.6715221776089186,-0.6715221776089186,0.740984456638178,925.7649842969452,-279.72389176149676)" fill="#aea090"></use><use xlink:href="#bbburst-shape-10" width="60.81078803024022" opacity="0.38891791121069785" transform="matrix(0.7133770226428011,-0.7007804389145664,0.7007804389145664,0.7133770226428011,269.28779355220064,302.62527810480697)" fill="none" stroke="#ae9890"></use><use xlink:href="#bbburst-shape-6" width="40.43237792227048" opacity="0.4368731051880851" transform="matrix(0.7959867626567607,0.6053140289760429,-0.6053140289760429,0.7959867626567607,674.6187997168856,109.39078568109431)" fill="#ae9890"></use><use xlink:href="#bbburst-shape-7" width="7.9387414871550614" opacity="0.9774928611847999" transform="matrix(0.9837933015618033,-0.17930627373889269,0.17930627373889269,0.9837933015618033,705.0789311065207,-381.16567362815533)" fill="#aea090"></use><use xlink:href="#bbburst-shape-10" width="34.82534199810797" opacity="0.47652690442955437" transform="matrix(0.9661212545620115,0.2580885923157491,-0.2580885923157491,0.9661212545620115,826.7126910471835,129.1151713649955)" fill="none" stroke="#aea090"></use><use xlink:href="#bbburst-shape-7" width="37.22205546402249" opacity="0.5865829523478534" transform="matrix(0.7278222508749439,0.6857658282032797,-0.6857658282032797,0.7278222508749439,1022.5897489853869,107.66715675539501)" fill="#aea090"></use><use xlink:href="#bbburst-shape-7" width="23.710388382409104" opacity="0.876345402039283" transform="matrix(0.8987625394147667,0.43843573958417204,-0.43843573958417204,0.8987625394147667,940.7035858187048,-243.43255495364934)" fill="#aea090"></use><use xlink:href="#bbburst-shape-10" width="21.700245561589494" opacity="0.6822817426561478" transform="matrix(0.7077536347240945,0.706459335372414,-0.706459335372414,0.7077536347240945,894.0885683069969,-29.5186864688406)" fill="none" stroke="#aea090"></use><use xlink:href="#bbburst-shape-10" width="38.615224064044696" opacity="0.5467352914707235" transform="matrix(0.977869848944567,0.2092141451363407,-0.2092141451363407,0.977869848944567,415.27462690537493,-337.12673505713485)" fill="none" stroke="#aea090"></use><use xlink:href="#bbburst-shape-10" width="53.61007176356051" opacity="0.25876560911073265" transform="matrix(0.7576499734256888,0.6526611048377657,-0.6526611048377657,0.7576499734256888,975.2171140894675,417.776712200018)" fill="none" stroke="#ae9890"></use><use xlink:href="#bbburst-shape-7" width="50.75839964264932" opacity="0.20366811775907612" transform="matrix(0.929998586281458,-0.36756309596379433,0.36756309596379433,0.929998586281458,281.67702015622257,353.88188251044767)" fill="#aea090"></use><use xlink:href="#bbburst-shape-7" width="14.924393048705767" opacity="0.8587182468708414" transform="matrix(0.9762185426596636,0.21678873810104282,-0.21678873810104282,0.9762185426596636,785.7460092541276,-286.32321225556615)" fill="#ae9890"></use><use xlink:href="#bbburst-shape-7" width="21.75305920858406" opacity="0.7888503266439848" transform="matrix(0.8861089293223001,-0.4634770386710511,0.4634770386710511,0.8861089293223001,417.8210361218196,-251.46446432177993)" fill="#aea090"></use><use xlink:href="#bbburst-shape-6" width="48.816492416376164" opacity="0.3720199035894862" transform="matrix(0.9088014128579601,0.4172289443307782,-0.4172289443307782,0.9088014128579601,857.730031609141,248.223467332261)" fill="#aea090"></use><use xlink:href="#bbburst-shape-7" width="20.286415740421887" opacity="0.8056302478416895" transform="matrix(0.9237596842448628,0.38297264362331607,-0.38297264362331607,0.9237596842448628,751.6591369640568,-343.77544052740325)" fill="#ae9890"></use><use xlink:href="#bbburst-shape-6" width="41.330350091360415" opacity="0.4264868023159274" transform="matrix(0.9997723758435382,0.021335334545465982,-0.021335334545465982,0.9997723758435382,216.5177284895867,-350.65207001076266)" fill="#ae9890"></use><use xlink:href="#bbburst-shape-10" width="45.93409917993506" opacity="0.5047066296969386" transform="matrix(0.9300873776522955,-0.36733835891705646,0.36733835891705646,0.9300873776522955,390.571457791391,69.03431976572188)" fill="none" stroke="#ae9890"></use><use xlink:href="#bbburst-shape-6" width="33.24209067830916" opacity="0.674778252874507" transform="matrix(0.903038262490894,-0.42956011974743097,0.42956011974743097,0.903038262490894,312.8218120562001,-229.3268669578335)" fill="#aea090"></use><use xlink:href="#bbburst-shape-6" width="59.631458773249726" opacity="0.11228917273093653" transform="matrix(0.8403788993243614,0.5419993593818861,-0.5419993593818861,0.8403788993243614,475.10322241468685,369.57115270945866)" fill="#ae9890"></use><use xlink:href="#bbburst-shape-6" width="36.738975263987285" opacity="0.6210709374824962" transform="matrix(0.8397746665125578,0.542935087725708,-0.542935087725708,0.8397746665125578,635.349258429822,-249.24182173729787)" fill="#aea090"></use><use xlink:href="#bbburst-shape-7" width="24.443853997405363" opacity="0.8386133564808402" transform="matrix(0.9954220651896387,0.09557673426935383,-0.09557673426935383,0.9954220651896387,684.9908366933789,-320.81548042863136)" fill="#aea090"></use><use xlink:href="#bbburst-shape-7" width="23.901598580956666" opacity="0.6576720141123638" transform="matrix(0.8257609945045572,-0.5640201946338843,0.5640201946338843,0.8257609945045572,223.5356180018217,-292.4247570753225)" fill="#aea090"></use></svg>