<svg width="150" height="30" viewBox="0 0 150 30" fill="none" xmlns="http://www.w3.org/2000/svg">
<g clip-path="url(#clip0_3_81)">
<path d="M33.5672 3.04057H33.678C34.6368 4.86491 35.1182 5.91314 35.1182 6.18248L34.8966 6.28384L34.5643 6.18248H34.3427C34.3427 6.7906 34.8221 8.81764 35.7829 12.2636C36.3731 14.4252 36.6691 16.0136 36.6691 17.0272C36.6691 19.1206 35.3015 20.4384 32.5702 20.9799C31.7565 21.2493 31.3516 21.6544 31.3516 22.1964C30.8339 23.1415 30.5761 24.155 30.5761 25.237C30.5761 26.385 31.13 26.9597 32.2378 26.9597H32.5702C34.4155 26.9597 36.9633 25.5063 40.2142 22.6018C43.6102 19.9666 45.6788 18.5127 46.418 18.2436V18.1426C46.1965 17.8035 45.3465 17.2636 43.87 16.5209C43.4997 15.8446 43.3161 15.2697 43.3161 14.7979C43.3161 13.7844 44.3494 13.2095 46.418 13.0749H46.5288L47.3043 13.1763H47.4151C49.7778 13.1763 52.7689 13.5467 56.3885 14.2912V14.5952C56.3885 15.6751 55.2807 16.4528 53.065 16.9263C50.9964 17.6692 49.5925 18.3105 48.8552 18.852L49.5199 20.1698V21.3858L49.2984 21.4872C48.6337 21.4872 47.969 21.1482 47.3043 20.4737H47.0827C45.9004 22.5673 45.3102 24.0542 45.3102 24.9331C45.3102 25.2707 45.4938 25.5413 45.8641 25.7442H46.5288C47.4151 25.7442 48.8173 24.7307 50.7386 22.7037C51.9934 21.8247 54.1346 20.9804 57.164 20.1698C57.6799 19.899 58.3081 19.4254 59.0473 18.7507C58.9728 18.2773 58.8983 17.8717 58.8257 17.5344C57.2002 10.9797 56.2777 6.96062 56.0561 5.47353V5.06761C56.129 4.25679 56.2777 3.85138 56.4993 3.85138C57.4581 5.20368 57.9394 6.2172 57.9394 6.89195L57.7179 6.9933L57.3855 6.89195V6.9933L59.6012 15.9123L59.712 17.3312V17.6355C59.6375 19.865 58.4551 21.284 56.1669 21.8921C53.2866 22.5668 51.033 23.7831 49.4092 25.5408C48.3013 26.4861 47.4514 26.9597 46.8612 26.9597H46.5288C45.8641 26.9597 45.3102 26.2505 44.8671 24.8315C44.8671 23.6817 45.6046 22.0601 47.0827 19.9666V19.6628C46.1965 19.7292 43.2053 21.8244 38.1093 25.9464C35.7446 27.7029 33.8251 28.5816 32.3486 28.5816C30.7976 28.5816 30.0222 27.7026 30.0222 25.9464V25.3381C30.0222 24.3912 30.3545 23.1747 31.0192 21.6896H30.7976C29.6898 21.6896 27.6957 22.9056 24.8154 25.3381C24.1507 25.7437 23.633 25.9459 23.2644 25.9459C22.0821 25.7435 21.4919 25.1685 21.4919 24.2232L21.3811 23.6151C21.3811 22.128 22.0458 20.5061 23.3752 18.7502L23.5968 17.8377C22.636 17.5671 21.9713 17.1617 21.6027 16.6218L20.8272 15.2028L20.7164 15.0001H20.6056C20.2353 15.2028 19.9027 15.743 19.6086 16.6218L18.5007 17.8377C19.0167 17.8377 19.4598 18.5475 19.8301 19.9661V20.3715C19.8301 21.1826 19.3125 21.588 18.2792 21.588C16.8011 21.588 15.8037 20.9117 15.288 19.561V19.358C15.0665 19.358 14.6959 20.0328 14.1802 21.3851C12.0371 23.3442 9.37832 24.8977 6.20384 26.0473C3.47055 26.925 1.40223 27.3651 0 27.3651V27.061C0 26.925 2.32644 26.0128 6.97932 24.3245C9.71067 23.1747 12.1116 21.6896 14.1802 19.8648C14.992 18.0407 15.5096 17.0936 15.7312 17.0272C17.7253 17.0272 19.2762 15.9452 20.384 13.7839L21.0487 13.4798C21.7863 15.1015 22.3402 15.9123 22.7105 15.9123H22.9321V15.8109L22.5997 14.2907C22.5997 12.3303 23.7075 11.3514 25.9232 11.3514C26.4389 11.3514 28.2496 11.7219 31.3516 12.4663C32.9025 12.8717 33.678 13.1411 33.678 13.2771C33.678 14.1546 32.8643 14.7293 31.2408 15.0001C28.582 16.5536 26.2176 17.5339 24.1507 17.9393C24.1507 18.6138 23.7075 19.4596 22.8213 20.4731C22.1566 21.6212 21.8242 22.5002 21.8242 23.1083V23.6151C21.8242 24.2896 22.1186 24.6286 22.7105 24.6286H22.9321C23.8183 24.6286 25.184 23.7828 27.031 22.0948C27.6212 21.284 30.1329 20.2355 34.5643 18.9529C35.4505 18.2768 35.8937 17.8712 35.8937 17.7366C35.5976 15.5069 34.8966 12.3982 33.7888 8.41223L33.0133 4.35814C33.0133 3.75003 33.1966 3.31143 33.5672 3.04057ZM11.6322 25.7437H11.8538V25.8448C11.6322 26.1142 10.2649 26.722 7.7548 27.6692H7.64402V27.4662C10.2283 26.3166 11.5577 25.7437 11.6322 25.7437ZM13.8479 12.8717C14.2165 12.8717 14.5126 13.0063 14.7341 13.2771V13.5812H14.6233V13.7839C13.8844 13.5133 13.5155 13.3103 13.5155 13.1758V13.0744L13.8479 12.8717ZM14.4018 24.6286C14.7704 24.6286 15.2135 24.8647 15.7312 25.3381C15.7312 25.7437 15.4354 26.1489 14.8449 26.5543L13.6263 25.9462V25.8448C13.6263 25.506 13.8841 25.1006 14.4018 24.6286ZM15.5096 12.4663H15.7312L15.9527 12.669V12.7704C15.9527 12.9049 15.7674 12.9731 15.3988 12.9731V13.5812L15.0665 13.8853L14.9557 13.7839C15.0285 12.9049 15.2135 12.4663 15.5096 12.4663ZM16.0635 18.7502V18.9529C16.5066 19.6958 17.3184 20.0677 18.5007 20.0677H18.6115V19.9664C18.6115 19.561 17.7615 19.1558 16.0635 18.7502ZM17.0606 24.2234H17.1713C17.3929 24.2234 17.836 24.4259 18.5007 24.8313V25.034C18.352 25.7769 18.1304 26.1489 17.836 26.1489C17.4658 26.1489 17.0223 25.8783 16.5066 25.3381C16.6537 24.5939 16.839 24.2234 17.0606 24.2234ZM17.6145 9.02035H17.7253C18.241 9.02035 18.5007 9.22305 18.5007 9.62846C18.205 9.96596 17.8723 10.1352 17.5037 10.1352H17.0606C17.1331 9.39104 17.3184 9.02035 17.6145 9.02035ZM19.8301 26.6556H20.384L21.0487 27.2637C21.0487 27.5331 20.4566 27.7021 19.2762 27.7705L20.0517 30H19.8301L19.1654 27.973V27.6692C19.387 27.3985 19.6811 27.2637 20.0517 27.2637C20.0517 27.1274 19.9409 27.0608 19.7194 27.0608V26.8583L19.8301 26.6556ZM30.7976 4.15544V4.35814C30.5761 4.69691 28.6928 5.54093 25.1477 6.89195C23.2262 7.70277 22.1184 8.27769 21.8242 8.61494L21.6027 8.41223C21.6755 8.07498 24.7409 6.65605 30.7976 4.15544ZM23.1536 13.7839C23.5223 15.4722 23.8546 16.3177 24.1507 16.3177C25.8487 16.3177 27.9536 15.5403 30.4653 13.9869C28.7653 13.3787 26.9928 12.9733 25.1477 12.7706C23.8912 12.9731 23.2262 13.3103 23.1536 13.7839ZM25.4801 26.9594H25.7016C26.1448 27.0263 26.3663 27.1274 26.3663 27.2637V27.3651L25.7016 28.1759V28.2773H25.9232L27.4742 28.1759V28.2773C27.4742 28.5466 26.9565 28.7156 25.9232 28.784H25.5908L25.4801 28.5813V27.9732L25.9232 27.4664V27.3651H25.7016H25.3693L25.1477 27.264L25.4801 26.9594ZM27.3634 17.8377H27.4742C28.2114 18.3098 28.582 18.8165 28.582 19.358L28.4712 19.561H28.3604C28.0643 19.0192 27.6957 18.5475 27.2526 18.142L27.3634 17.8377ZM30.7976 7.60142L31.2408 8.81764C31.2408 9.15489 30.945 9.3244 30.3545 9.3244L29.8006 9.62846C29.4303 9.62846 29.2467 9.22305 29.2467 8.41223V8.31088H29.4682L29.8006 9.02035H30.2437L29.9114 7.90547L30.0222 7.80412C30.3166 7.80412 30.4653 8.04179 30.4653 8.51358L30.7976 8.81764L30.4653 7.70277L30.5761 7.60142H30.7976V7.60142ZM35.4505 0C35.5234 0 35.7829 0.372216 36.226 1.11487H36.4476L37.5554 0.202704L37.9985 0C38.5142 0.270864 38.774 0.541728 38.774 0.810818C38.3309 1.28439 37.739 1.52028 37.0015 1.52028C37.0015 1.72299 36.7417 1.82434 36.226 1.82434L35.8937 1.52028C35.5234 1.72299 35.1545 1.82434 34.7858 1.82434H34.5643L34.3427 1.62164V1.52028C35.0802 1.38574 35.4505 1.25094 35.4505 1.11487L35.3397 0.202704L35.4505 0ZM35.8937 20.7772C36.7799 21.1145 37.223 21.3174 37.223 21.3851V21.8918C37.074 22.432 36.8907 22.7029 36.6691 22.7029H36.3368C35.6721 22.3639 35.3397 22.0948 35.3397 21.8918L35.8937 20.7772ZM37.223 1.11487H37.3338C37.777 1.04849 37.9985 0.947136 37.9985 0.810818V0.709465H37.6662L37.223 1.11487ZM38.5524 2.83786H38.6632C39.475 4.39286 39.8818 5.30503 39.8818 5.57437L39.6603 5.77708L39.3279 5.57437V5.77708C40.1397 8.95371 40.6936 11.6208 40.9897 13.7839C41.2112 13.7839 41.3946 15.0668 41.5436 17.6355C41.5436 18.3782 41.3946 18.9529 41.1004 19.3583L40.6573 19.1558V18.4461L40.7681 18.2434H40.6573V17.5339C40.3615 15.3708 39.6966 11.8232 38.6632 6.89195C38.5142 6.01475 38.3309 5.57437 38.1093 5.57437H38.2201V5.37167L37.8877 3.95274C38.0348 3.21008 38.2564 2.83786 38.5524 2.83786ZM43.5377 25.3381V25.4392C40.6573 27.1274 38.9574 27.973 38.4417 27.973H38.2201V27.7705C38.9576 27.2288 40.7302 26.4182 43.5377 25.3381ZM41.9867 7.60142C42.4298 7.87228 42.6514 8.54855 42.6514 9.62846H42.4298L41.7651 7.70277L41.8759 7.60142H41.9867ZM50.8493 2.53381C51.0709 2.53381 51.1817 2.60196 51.1817 2.73651L50.9601 3.04057H50.8493L50.7386 2.93921C49.1876 3.75003 47.3769 4.15544 45.3102 4.15544H43.87C43.87 4.35814 43.7955 4.4595 43.6485 4.4595C43.2053 3.91954 42.9838 3.51413 42.9838 3.24327C43.87 3.58204 44.571 3.75003 45.0886 3.75003C46.9337 3.75003 48.8552 3.34462 50.8493 2.53381ZM44.4239 15.0001C44.4968 15.2028 45.3102 15.8107 46.8612 16.8242C47.3043 17.1617 47.5259 17.4323 47.5259 17.6353L52.9542 15.5069C52.9542 15.1679 50.5896 14.932 45.8641 14.7974H45.5318L44.4239 15.0001ZM53.8405 5.37167L53.9513 5.47302V5.57437C52.9905 6.18248 50.7748 6.96011 47.3043 7.90547L45.0886 8.81764V9.3244H44.9778C44.8288 9.3244 44.7563 9.22305 44.7563 9.02035C44.7563 8.27769 46.1965 7.60142 49.0768 6.9933C51.8827 5.91314 53.4702 5.37167 53.8405 5.37167ZM47.5259 10.0339C47.8945 10.0339 48.1523 10.2019 48.3013 10.5406V10.7433L47.969 11.1487H47.3043C47.1556 11.1487 47.0827 11.0124 47.0827 10.7433C47.2298 10.3379 47.3771 10.1005 47.5259 10.0339ZM53.8405 9.62846C53.8405 9.96596 53.3594 10.2698 52.4003 10.5406C51.9572 10.3379 51.7356 9.93252 51.7356 9.3244V9.1217L51.8464 9.02035L52.2895 9.83116H52.6219L52.4003 9.02035V8.81764H52.6219C52.8434 8.8858 52.9542 9.15489 52.9542 9.62846H53.2866L52.9542 8.81764L53.065 8.61494C53.3594 8.6831 53.6189 9.02035 53.8405 9.62846ZM52.6219 25.5408C53.3594 25.8101 53.7297 26.0128 53.7297 26.1489C53.7297 26.5543 53.2121 26.757 52.1787 26.757C52.6947 28.1075 52.9542 28.9865 52.9542 29.3919H52.6219L51.8464 27.0608V26.757C51.9934 26.3513 52.1408 26.1489 52.2895 26.1489L52.1787 26.0475V25.9462L52.6219 25.5408ZM56.4993 24.2234C56.9424 24.358 57.164 24.4928 57.164 24.6288V24.8313C56.6463 25.1685 56.3885 25.4726 56.3885 25.7437H57.164L58.8257 25.3381C58.2338 26.0128 57.4581 26.3516 56.4993 26.3516C56.2032 26.3516 55.9816 26.2153 55.8346 25.9459L56.2777 24.8313H56.1669H55.7238C55.8708 24.4256 56.129 24.2234 56.4993 24.2234ZM58.7149 0.709465L59.3796 1.82434H59.712L60.9306 1.01352H61.4845C61.9276 1.01352 62.1492 1.11487 62.1492 1.31758V1.52028C62.1492 2.19656 61.4845 2.53381 60.1551 2.53381L59.6012 2.63516L59.3796 2.73651C59.3796 2.46717 59.3051 2.3311 59.1581 2.3311C58.862 2.60196 58.5296 2.73651 58.161 2.73651H57.9394V2.53381L58.9365 2.1284C58.6407 1.52028 58.4934 1.08168 58.4934 0.810818L58.6041 0.709465H58.7149V0.709465ZM68.353 23.8178V23.9189C68.353 24.3245 66.6168 24.9993 63.1462 25.9459C62.3325 26.3516 61.9276 26.6207 61.9276 26.757L61.2629 26.6556L60.0443 27.061V26.8583C60.0443 26.5196 61.9276 25.7767 65.6942 24.6286C67.0965 24.0871 67.9825 23.8178 68.353 23.8178ZM60.5982 1.82434H60.8198H61.3737V1.52028H61.1521L60.5982 1.82434ZM61.5953 3.75003C62.3328 5.23712 62.7031 6.2172 62.7031 6.68925H62.26C63.3678 12.1623 63.9217 15.5733 63.9217 16.9258C63.773 18.0739 63.5514 18.6491 63.257 18.6491L63.1462 18.4461L63.257 17.0272L61.5953 8.81764L61.7061 8.41223L60.9306 5.06761C61.1521 4.19041 61.3737 3.75003 61.5953 3.75003ZM74.003 13.4798C74.8892 14.4934 75.3324 15.1679 75.3324 15.5069V15.6082C75.1108 15.6082 75 15.6746 75 15.8107C75.812 17.6353 76.2186 18.8165 76.2186 19.358V19.6623C76.0696 21.2837 75.4794 22.0948 74.4461 22.0948H74.1137C73.0785 22.0948 72.303 21.5531 71.7873 20.4731V20.3718H71.5657C71.5657 21.4522 70.752 22.2628 69.1285 22.8045H68.2422C67.2815 22.8045 66.6168 21.9937 66.2482 20.3718L66.4697 18.4461C65.9521 18.9861 65.509 20.3371 65.1403 22.5002C64.6972 23.1083 64.2903 23.4456 63.9217 23.5137C62.961 23.5137 62.26 22.2296 61.8168 19.6626C61.8894 18.7152 62.0384 18.2434 62.26 18.2434C62.407 18.2434 62.4815 19.0874 62.4815 20.7772C62.9247 21.6544 63.4041 22.0948 63.9217 22.0948C64.3649 22.0948 64.9188 20.8106 65.5835 18.2434C66.0994 17.0272 66.6168 16.3509 67.1344 16.2164C67.356 16.4857 67.4668 16.7566 67.4668 17.0272L67.1344 19.561C67.2073 20.709 67.7612 21.284 68.7962 21.284H69.0177C70.1256 21.284 70.8628 20.7422 71.2334 19.6626L70.5687 15.5071V15.2028C70.5687 14.5268 70.6795 14.1893 70.901 14.1893C71.5657 15.0665 72.0452 16.5536 72.3412 18.6491C72.7098 19.9319 73.3745 20.5747 74.3353 20.5747H74.4461L75.6647 20.1693C74.3353 17.1288 73.6706 15.3042 73.6706 14.6961V13.9866C73.7435 13.6478 73.8542 13.4798 74.003 13.4798ZM145.79 10.0339C146.306 10.3711 146.566 11.1819 146.566 12.4663C147.599 14.4934 148.117 15.8776 148.117 16.6218V17.1285C148.117 18.6136 147.488 19.4594 146.233 19.6623C145.641 19.6623 144.94 19.2901 144.129 18.5475H144.018C144.018 19.222 143.426 19.6955 142.245 19.9664H142.024C141.432 19.9664 140.989 19.6626 140.694 19.0542C139.955 19.7971 138.773 20.1691 137.149 20.1691C136.41 20.1691 135.931 19.6623 135.709 18.6488H135.598C132.496 19.5263 126.44 20.5745 117.43 21.7907C111.52 22.4655 106.388 22.8042 102.031 22.8042C96.1213 22.8042 91.0998 22.2625 86.9646 21.1829H86.743C86.743 22.0601 86.3361 22.5002 85.5244 22.5002C84.6381 22.2975 83.6774 21.9253 82.6443 21.3853C81.758 23.2099 79.5787 24.9326 76.1078 26.5543C73.5964 27.9053 69.9768 28.8507 65.2511 29.3921H64.3648V29.1894L74.3353 25.8448C77.7314 24.2896 80.0581 22.9053 81.3146 21.6896C82.7169 19.3236 83.7521 18.1423 84.4165 18.1423H84.6381L87.2972 19.5612C90.8422 20.7093 95.8275 21.2842 102.253 21.2842H104.247C112.37 21.2842 122.377 20.068 134.269 17.6358C135.228 17.2968 136.003 17.129 136.595 17.129V17.3315L136.484 17.6358V17.7366C136.484 18.2768 136.817 18.5806 137.482 18.6491H138.146C139.18 18.6491 140.213 18.1423 141.248 17.1288C141.395 17.1288 141.506 17.4326 141.581 18.0409C141.875 18.1755 142.207 18.2436 142.578 18.2436H142.688C143.204 18.2436 143.796 17.7019 144.461 16.6223H144.571C144.644 16.6223 144.718 16.8582 144.793 17.3315C145.162 17.669 145.715 17.9396 146.455 18.1426C147.119 18.0062 147.452 17.8382 147.452 17.6358L145.236 11.352C145.458 10.4727 145.641 10.0339 145.79 10.0339ZM67.7991 10.4393H68.0207C68.5364 10.4393 68.9069 10.7765 69.1285 11.4528V11.8582C69.1285 11.9246 68.8324 12.0259 68.2422 12.1623C67.7246 13.0395 67.0236 13.4798 66.1374 13.4798V13.1758C66.8749 12.9049 67.5033 12.4998 68.0207 11.9596V11.8582C67.6504 11.8582 67.4668 11.79 67.4668 11.6555C67.4668 10.8447 67.5776 10.4393 67.7991 10.4393ZM75 4.86491L75.1108 4.96626V5.06761C75.1108 5.27031 73.3383 6.08113 69.7932 7.50006C68.9795 7.70277 68.2043 8.14314 67.4668 8.81764L67.5776 9.02035L67.4668 9.1217L67.1344 8.81764V8.41223C67.356 7.94019 69.9768 6.7574 75 4.86491ZM68.353 2.83786H68.9069L69.3501 3.34462V3.54733C69.1285 3.95274 68.7582 4.15544 68.2422 4.15544L68.0207 3.64868C68.0932 3.10873 68.2043 2.83786 68.353 2.83786ZM73.0059 9.52711C73.3745 9.86436 73.5598 10.2698 73.5598 10.7433C73.5598 11.0127 73.0785 11.2154 72.1196 11.3514C71.6765 11.2151 71.455 10.946 71.455 10.5406V10.1352L71.5657 10.0339C71.7873 10.5057 71.9706 10.7433 72.1196 10.7433H72.3412L72.1196 9.62846H72.3412L72.6736 10.5406H73.0059L72.6736 9.62846L72.7843 9.52711H73.0059ZM79.4313 2.73651H79.6529C80.1689 2.73651 80.4286 2.90577 80.4286 3.24327C80.4286 4.05409 79.8365 4.4595 78.6561 4.4595L77.1052 4.15544V4.6622H76.8833L76.6617 4.4595C76.6617 3.85138 76.9199 3.51413 77.4372 3.44597L78.1019 3.75003C78.3235 3.41278 78.7666 3.07553 79.4313 2.73651ZM77.4372 5.77708C78.3235 7.19601 78.7669 8.10818 78.7669 8.51358V8.81764L78.6561 9.02035L78.4345 8.81764H78.3238V9.02035C79.21 14.0198 79.6532 17.2633 79.6532 18.7502V19.358C79.6532 20.1691 79.3934 20.6758 78.8777 20.8783H78.7666V20.6758L78.8771 18.8513L78.3232 15.5069L76.9938 7.90547L76.883 7.29736V6.89195C77.0304 6.14929 77.2157 5.77708 77.4372 5.77708ZM78.7666 3.75003V3.85138L79.6526 3.64868V3.34462H79.5421C79.0245 3.41278 78.7666 3.54733 78.7666 3.75003ZM89.7341 23.007C89.291 23.2763 86.5214 24.3245 81.4254 26.1489L81.3146 26.0475V25.9462C81.4617 25.5408 84.195 24.4925 89.5126 22.8042L89.7341 23.007ZM81.8685 15.0001C82.3845 15.0001 82.6443 15.2695 82.6443 15.8107V15.912L82.4225 16.2164C82.4225 16.0136 82.1627 15.8776 81.647 15.8107L81.4254 15.6082V15.5069C81.4983 15.1679 81.647 15.0001 81.8685 15.0001ZM82.644 10.7433L82.9764 11.1487V11.3514C82.9764 11.4178 82.7914 11.4528 82.4225 11.4528L82.644 11.6555H83.6411V11.8582C83.6411 12.2636 82.9764 12.6009 81.647 12.8717V12.7704L82.0904 12.2636L81.647 11.8582V11.6555C81.794 11.0474 82.1264 10.7433 82.644 10.7433ZM83.4195 14.5947L83.8626 14.7974V15.0001C83.8626 15.2028 83.7139 15.3039 83.4195 15.3039V15.8107L83.1979 16.3175H83.0872V15.0001L83.4195 14.5947ZM83.4195 20.0677C84.0839 20.5395 84.7489 20.7772 85.4136 20.7772C85.1175 20.1693 84.7107 19.8648 84.195 19.8648C83.6774 19.9317 83.4195 19.9996 83.4195 20.0677ZM85.9675 25.5408H86.1891C86.7793 25.5408 87.0753 25.8101 87.0753 26.3516C87.0753 26.5543 86.6319 26.6888 85.7457 26.7572V27.061L86.2996 28.8854H86.1891C86.1146 28.8854 85.7822 28.2091 85.1918 26.8583C85.1918 26.5875 85.3754 26.3516 85.7457 26.1489V26.0475V25.9462L85.9675 25.5408ZM141.027 22.6015H141.248V22.7029C141.248 23.2428 140.878 23.5135 140.14 23.5135L139.808 23.6148H139.143H139.033C137.482 24.7629 136.485 25.3378 136.041 25.3378V25.2367L137.925 23.9189L139.143 23.0067L140.251 23.108V23.0067L140.473 22.7029L140.694 23.007L141.027 22.6015ZM139.919 9.3244C140.287 9.45895 140.473 9.69484 140.473 10.0339V10.1352C140.473 10.4046 140.177 10.6073 139.586 10.7433H139.476C139.254 10.7433 139.144 10.5406 139.144 10.1352C139.438 9.66165 139.697 9.39104 139.919 9.3244ZM139.586 9.83116L139.476 10.0339L139.697 10.1352H139.808L140.029 10.0339L139.586 9.83116ZM139.919 13.2771C140.434 13.4798 140.694 13.8171 140.694 14.2907H140.473H140.362C140.362 14.2225 140.14 14.1214 139.697 13.9866V13.4798L139.919 13.2771ZM141.581 13.1758L141.691 13.4798V13.7839C141.395 13.7839 141.248 13.9519 141.248 14.2907H140.916C141.063 13.5462 141.284 13.1758 141.581 13.1758ZM150 24.8313C149.704 25.237 146.677 26.2834 140.916 27.973V27.7705C141.359 27.4317 144.386 26.4527 150 24.8313ZM145.458 22.5002H145.568C146.084 22.5002 146.602 22.8042 147.12 23.4124C147.12 23.8844 146.898 24.2566 146.455 24.5272H146.344C145.974 24.5272 145.53 24.2566 145.015 23.7167V23.6153L145.458 22.5002Z" fill="#6D5844"/>
</g>
<defs>
<clipPath id="clip0_3_81">
<rect width="150" height="30" fill="white"/>
</clipPath>
</defs>
</svg>
